<?xml version="1.0" ?>
<!-- Uploaded to: SVG Repo, www.svgrepo.com, Generator: SVG Repo Mixer Tools -->
<svg width="800px" height="800px" viewBox="0 0 64 64" xmlns="http://www.w3.org/2000/svg">
<g id="a"/>
<g id="b"/>
<g id="c"/>
<g id="d"/>
<g id="e"/>
<g id="f"/>
<g id="g"/>
<g id="h"/>
<g id="i"/>
<g id="j"/>
<g id="k"/>
<g id="l"/>
<g id="m"/>
<g id="n"/>
<g id="o"/>
<g id="p"/>
<g id="q"/>
<g id="r"/>
<g id="s"/>
<g id="t"/>
<g id="u"/>
<g id="v"/>
<g id="w"/>
<g id="x"/>
<g id="y"/>
<g id="a`"/>
<g id="aa"/>
<g id="ab"/>
<g id="ac"/>
<g id="ad"/>
<g id="ae"/>
<g id="af"/>
<g id="ag"/>
<g id="ah"/>
<g id="ai"/>
<g id="aj"/>
<g id="ak"/>
<g id="al"/>
<g id="am"/>
<g id="an"/>
<g id="ao"/>
<g id="ap"/>
<g id="aq"/>
<g id="ar"/>
<g id="as"/>
<g id="at"/>
<g id="au"/>
<g id="av"/>
<g id="aw">
<path d="M6.96,13.98c-1.08,0-1.96,.87-1.96,1.95v9.95c0,1.08,.88,1.95,1.96,1.95h11.47l4.7-2.51c.02-.15,.04-.3,.04-.45,0-1.65-1.32-2.97-2.96-2.97H10.82c-1.03,0-1.85-.82-1.85-1.85s.83-1.85,1.85-1.85h2.59c1.17,0,2.11-.94,2.11-2.11s-.94-2.11-2.11-2.11H6.96Z" fill="#d1f1f4" fill-rule="evenodd"/>
<polygon fill="#f0f4f6" fill-rule="evenodd" points="35.82 33.19 34.72 28.13 33.29 26.85 29.07 27.86 29.56 35.52 35.82 33.19"/>
<path d="M20.65,25.32c-1.23,0-2.22,.99-2.22,2.22v5.65l8.23,1.7,4.59-1.7-.53-2.41c-.3-1.36,.74-2.65,2.14-2.65h1.87c.78,0,1.4-.63,1.4-1.41s-.63-1.4-1.4-1.4h-14.07Z" fill="#8598ab" fill-rule="evenodd"/>
<path d="M17.35,33.19c-1.23,0-2.54,.95-2.22,2.87l1.17,6.96,4.11,4.04,21.93,.79,5.64-4.7c1.28-1.7,2.04-3.82,2.04-6.13v-1.61c0-1.23-.99-2.22-2.22-2.22H17.35Z" fill="#9dacb9" fill-rule="evenodd"/>
<path d="M22.75,37.89c0,.95-.77,1.73-1.72,1.73s-1.72-.78-1.72-1.73,.77-1.72,1.72-1.72,1.72,.77,1.72,1.72Z" fill="#f0f4f6" fill-rule="evenodd"/>
<path d="M28.39,36.17c-.95,0-1.72,.77-1.72,1.72s.77,1.73,1.72,1.73,1.72-.77,1.72-1.73-.77-1.72-1.72-1.72Z" fill="#f0f4f6" fill-rule="evenodd"/>
<path d="M43.87,7.2c-1.17,0-2.11,.94-2.11,2.11s.94,2.11,2.11,2.11h9.31c1.03,0,1.85,.83,1.85,1.86s-.83,1.85-1.85,1.85h-2.36c-1.64,0-2.96,1.32-2.96,2.96s1.32,2.96,2.96,2.96h6.22c1.08,0,1.95-.87,1.95-1.95V9.15c0-1.07-.88-1.95-1.95-1.95h-13.18Z" fill="#d1f1f4" fill-rule="evenodd"/>
<path d="M32.7,11.3c0,1.3-1.06,2.36-2.36,2.36s-2.36-1.06-2.36-2.36,1.06-2.37,2.36-2.37,2.36,1.06,2.36,2.37Z" fill="#fdda5c" fill-rule="evenodd"/>
<path d="M44.62,24.79h7.42c1.29,0,2.33,1.04,2.33,2.33s-1.04,2.33-2.33,2.33h-7.42c-1.29,0-2.33-1.04-2.33-2.33s1.04-2.33,2.33-2.33Z" fill="#d1f1f4" fill-rule="evenodd"/>
<path d="M59,49.87v-4.46c0-1.73-1.94-2.75-3.68-1.55-1.73,1.2-4.42,1.2-6.45-.21s-4.72-1.41-6.75,0-4.72,1.41-6.75,0c-1.02-.7-2.2-1.05-3.38-1.05s-2.36,.35-3.38,1.05c-2.03,1.41-4.72,1.41-6.75,0-1.02-.7-2.2-1.05-3.38-1.05s-2.36,.35-3.38,1.05c-2.03,1.41-4.72,1.41-6.45,.21-1.73-1.2-3.68-.18-3.68,1.55v4.46H59Z" fill="#62d9fa" fill-rule="evenodd"/>
<path d="M32,47.06c-1.18,0-2.36,.35-3.38,1.05-2.03,1.41-4.72,1.41-6.75,0-1.02-.7-2.2-1.05-3.38-1.05s-2.36,.35-3.38,1.05c-2.03,1.41-4.72,1.41-6.45,.21-1.73-1.2-3.68-.18-3.68,1.55v4.46l28.1,1.42,25.9-1.42v-4.46c0-1.73-1.94-2.75-3.68-1.55-1.73,1.2-4.42,1.2-6.45-.21s-4.72-1.41-6.75,0-4.72,1.41-6.75,0c-1.02-.7-2.2-1.05-3.38-1.05Z" fill="#0acffb" fill-rule="evenodd"/>
<path d="M32,51.51c-1.18,0-2.36,.36-3.38,1.06-2.03,1.41-4.72,1.41-6.75,0-1.02-.7-2.2-1.05-3.38-1.05s-2.36,.35-3.38,1.05c-2.03,1.41-4.72,1.41-6.45,.21-1.73-1.2-3.68-.18-3.68,1.55v1.47c0,1.77,1.43,3.2,3.2,3.2H55.8c1.77,0,3.2-1.43,3.2-3.2v-1.47c0-1.73-1.94-2.75-3.68-1.55-1.73,1.2-4.42,1.2-6.45-.21-2.03-1.41-4.72-1.41-6.75,0-2.03,1.41-4.72,1.41-6.75,0-1.02-.7-2.2-1.06-3.38-1.06Z" fill="#62d9fa" fill-rule="evenodd"/>
<path d="M30.34,4c-.55,0-1,.45-1,1v1.37c0,.55,.45,1,1,1s1-.45,1-1v-1.37c0-.55-.45-1-1-1Z" fill="#fdda5c" fill-rule="evenodd"/>
<path d="M30.34,15.22c-.55,0-1,.45-1,1v1.37c0,.55,.45,1,1,1s1-.45,1-1v-1.37c0-.55-.45-1-1-1Z" fill="#fdda5c" fill-rule="evenodd"/>
<path d="M35.27,10.3c-.55,0-1,.45-1,1s.45,1,1,1h1.37c.55,0,1-.46,1-1s-.45-1-1-1h-1.37Z" fill="#fdda5c" fill-rule="evenodd"/>
<path d="M24.05,10.3c-.55,0-1,.45-1,1s.45,1,1,1h1.37c.55,0,1-.46,1-1s-.45-1-1-1h-1.37Z" fill="#fdda5c" fill-rule="evenodd"/>
<path d="M34.09,6.14l-.97,.96c-.39,.39-.39,1.03,0,1.42s1.03,.39,1.41,0l.97-.97c.39-.39,.39-1.02,0-1.41s-1.03-.39-1.41,0Z" fill="#fdda5c" fill-rule="evenodd"/>
<path d="M26.86,13.78c-.26,0-.52,.1-.71,.29l-.97,.97c-.39,.39-.39,1.02,0,1.41,.39,.39,1.03,.39,1.41,0l.97-.96c.39-.39,.39-1.03,0-1.42-.19-.19-.44-.29-.71-.29Z" fill="#fdda5c" fill-rule="evenodd"/>
<path d="M33.83,13.78c-.26,0-.52,.1-.71,.29-.39,.39-.39,1.03,0,1.42l.97,.96c.39,.39,1.03,.39,1.41,0,.39-.39,.39-1.02,0-1.41l-.97-.97c-.19-.19-.44-.29-.71-.29Z" fill="#fdda5c" fill-rule="evenodd"/>
<path d="M25.89,5.84c-.27,0-.52,.11-.71,.3-.39,.39-.39,1.02,0,1.41l.97,.97c.39,.39,1.03,.39,1.41,0,.39-.39,.39-1.03,0-1.42l-.97-.96c-.19-.19-.44-.3-.71-.3Z" fill="#fdda5c" fill-rule="evenodd"/>
<path d="M33.52,36.69c-.55,0-1,.45-1,1s.45,1,1,1h5.01c.55,0,1-.45,1-1s-.45-1-1-1h-5.01Z" fill="#f0f4f6" fill-rule="evenodd"/>
</g>
<g id="ax"/>
</svg>