<?xml version="1.0" ?>
<!-- Uploaded to: SVG Repo, www.svgrepo.com, Generator: SVG Repo Mixer Tools -->
<svg width="800px" height="800px" viewBox="0 0 64 64" xmlns="http://www.w3.org/2000/svg">
<g id="a"/>
<g id="b"/>
<g id="c"/>
<g id="d"/>
<g id="e"/>
<g id="f"/>
<g id="g"/>
<g id="h"/>
<g id="i"/>
<g id="j"/>
<g id="k"/>
<g id="l"/>
<g id="m"/>
<g id="n">
<path d="M59,46.28v-4.46c0-1.73-1.94-2.75-3.68-1.55-1.73,1.2-4.42,1.2-6.45-.21-2.03-1.41-4.72-1.41-6.75,0-2.03,1.41-4.72,1.41-6.75,0-1.02-.7-2.2-1.06-3.38-1.06s-2.36,.35-3.38,1.06c-2.03,1.41-4.72,1.41-6.75,0-1.02-.7-2.2-1.05-3.38-1.05s-2.36,.35-3.38,1.05c-2.03,1.41-4.72,1.41-6.45,.21-1.73-1.2-3.68-.18-3.68,1.55v4.46H59Z" fill="#62d9fa" fill-rule="evenodd"/>
<path d="M40.35,11.4h-8.23c-.88,0-1.59,.71-1.59,1.59v6.68c0,.88,.71,1.59,1.59,1.59h10.32l-2.08-9.87Z" fill="#fd91ba" fill-rule="evenodd"/>
<path d="M40.35,31.56c-5.01-5.95-10.32,0-10.32,0-2.17-2.16,1.26-13.82,10.32-13.47l3.19-7.91c15.46-.73,13.52,21.46,13.52,21.46,0,0-8.62-7.63-13.52,0l-2.02,.66-1.16-.73Z" fill="#fce87b" fill-rule="evenodd"/>
<path d="M24.25,45.49l-2.18-6.48c-.35-1.05-1.27-1.82-2.37-1.98l-6.68-.99-2.16,5.7,5.88,5.99,7.51-2.24Z" fill="#f0bdb0" fill-rule="evenodd"/>
<path d="M6.27,27.89c-.68,.02-1.27,.57-1.27,1.3v17.1l7.22,1.27,2.9-3.02-3.23-12.99c-.28-1.11-.99-2.06-2.07-2.45l-3.09-1.12c-.16-.06-.32-.08-.47-.08Z" fill="#ffded4" fill-rule="evenodd"/>
<path d="M51.21,45.49c2.06-2.92,5.83-4.69,5.84-9.96l-15.77-1.98-14.45,1.98c.01,4.02,2.22,6.01,4.17,8.02l1.07,2.08,13.93,1.43,5.2-1.57Z" fill="#9dacb9" fill-rule="evenodd"/>
<path d="M41.94,8.59c-.88,0-1.59,.71-1.59,1.59v23.46h3.19V10.18c0-.88-.71-1.59-1.59-1.59Z" fill="#9dacb9" fill-rule="evenodd"/>
<path d="M32,43.47c-1.18,0-2.36,.35-3.38,1.06-2.03,1.41-4.72,1.41-6.75,0-1.02-.7-2.2-1.05-3.38-1.05s-2.36,.35-3.38,1.05c-2.03,1.41-4.72,1.41-6.45,.21-1.73-1.2-3.68-.18-3.68,1.55v4.46l28.1,1.43,25.9-1.43v-4.46c0-1.73-1.94-2.75-3.68-1.55-1.73,1.2-4.42,1.2-6.45-.21-2.03-1.41-4.72-1.41-6.75,0-2.03,1.41-4.72,1.41-6.75,0-1.02-.7-2.2-1.06-3.38-1.06Z" fill="#0acffb" fill-rule="evenodd"/>
<path d="M32,47.93c-1.18,0-2.36,.35-3.38,1.06-2.03,1.41-4.72,1.41-6.75,0-1.02-.7-2.2-1.05-3.38-1.05s-2.36,.35-3.38,1.05c-2.03,1.41-4.72,1.41-6.45,.21-1.73-1.2-3.68-.18-3.68,1.55v1.48c0,1.77,1.43,3.2,3.2,3.2H55.8c1.77,0,3.2-1.43,3.2-3.2v-1.48c0-1.73-1.94-2.75-3.68-1.55-1.73,1.2-4.42,1.2-6.45-.21-2.03-1.41-4.72-1.41-6.75,0-2.03,1.41-4.72,1.41-6.75,0-1.02-.7-2.2-1.06-3.38-1.06Z" fill="#62d9fa" fill-rule="evenodd"/>
<path d="M26.83,31.64h30.22c1.08,0,1.95,.87,1.95,1.95s-.87,1.95-1.95,1.95H26.83c-1.08,0-1.95-.87-1.95-1.95s.87-1.95,1.95-1.95Z" fill="#8598ab" fill-rule="evenodd"/>
<path d="M47.94,37.79c-.55,0-1,.45-1,1s.45,1,1,1h3.27c.55,0,1-.45,1-1s-.45-1-1-1h-3.27Z" fill="#8598ab" fill-rule="evenodd"/>
<path d="M43.54,37.79c-.55,0-1,.45-1,1s.45,1,1,1h.93c.55,0,1-.45,1-1s-.45-1-1-1h-.93Z" fill="#8598ab" fill-rule="evenodd"/>
<path d="M39.19,37.79c-.55,0-1,.45-1,1s.45,1,1,1h.93c.55,0,1-.45,1-1s-.45-1-1-1h-.93Z" fill="#8598ab" fill-rule="evenodd"/>
</g>
<g id="o"/>
<g id="p"/>
<g id="q"/>
<g id="r"/>
<g id="s"/>
<g id="t"/>
<g id="u"/>
<g id="v"/>
<g id="w"/>
<g id="x"/>
<g id="y"/>
<g id="a`"/>
<g id="aa"/>
<g id="ab"/>
<g id="ac"/>
<g id="ad"/>
<g id="ae"/>
<g id="af"/>
<g id="ag"/>
<g id="ah"/>
<g id="ai"/>
<g id="aj"/>
<g id="ak"/>
<g id="al"/>
<g id="am"/>
<g id="an"/>
<g id="ao"/>
<g id="ap"/>
<g id="aq"/>
<g id="ar"/>
<g id="as"/>
<g id="at"/>
<g id="au"/>
<g id="av"/>
<g id="aw"/>
<g id="ax"/>
</svg>