<?xml version="1.0" encoding="iso-8859-1"?>
<!-- Uploaded to: SVG Repo, www.svgrepo.com, Generator: SVG Repo Mixer Tools -->
<svg height="800px" width="800px" version="1.1" id="Layer_1" xmlns="http://www.w3.org/2000/svg" xmlns:xlink="http://www.w3.org/1999/xlink" 
	 viewBox="0 0 390.565 390.565" xml:space="preserve">
<g>
	<path style="fill:#56ACE0;" d="M177.261,180.382l-78.545-35.814h79.127c-0.517,2.198-0.517,4.331-0.517,6.529v29.285H177.261z"/>
	<path style="fill:#56ACE0;" d="M361.568,258.41H230.982c-16.808,0-30.901-12.994-32.517-29.285h11.378
		c5.947,0,10.861-4.848,10.861-10.861c0-5.947-4.331-11.378-10.279-11.378H198.4V185.23h33.616c5.947,0,10.861-4.848,10.861-10.861
		c0-5.947-4.913-10.861-10.861-10.861H198.4v-12.477c0-3.814,3.232-7.046,7.046-7.046h56.372c2.133,0,4.331,0,6.529,0.517v52.558
		c0,15.192,12.477,27.669,27.669,27.669h69.366c2.198,8.663,3.232,17.325,3.232,26.57
		C368.614,255.178,365.317,258.41,361.568,258.41z"/>
</g>
<polygon style="fill:#FFFFFF;" points="21.721,151.097 35.297,133.772 21.721,116.382 "/>
<path style="fill:#FFC10D;" d="M289.487,147.865v49.325c0,3.232,2.715,5.947,5.947,5.947h61.22
	C343.661,176.05,319.289,155.945,289.487,147.865z"/>
<path style="fill:#194F82;" d="M372.364,294.741l-22.238,17.907h-28.703v-33.034h39.564c15.709,0,28.703-12.994,28.703-28.703
	c0-70.982-57.988-128.453-128.453-128.453h-24.372V77.465h139.83c5.947,0,10.861-4.848,10.861-10.861s-4.848-10.861-10.861-10.861
	H75.96c-5.947,0-10.861,4.848-10.861,10.861s4.848,10.861,10.861,10.861h139.83v44.994l-161.552,0.452L19.523,78.499
	C11.96,70.353,0,74.685,0,85.028v97.552c0.517,10.279,12.477,14.61,19.523,6.529l33.034-41.762l124.638,56.889v21.657
	c0,29.285,23.855,53.657,53.139,54.174v33.034h-51.459c-5.947,0-10.861,4.848-10.861,10.861s4.848,10.861,10.861,10.861h175.58
	c2.715,0,4.848-1.099,7.046-2.198l24.954-20.622c4.848-3.814,5.43-10.861,1.616-15.192
	C384.323,291.444,377.277,290.927,372.364,294.741z M21.721,151.097v-34.715l13.576,17.325L21.721,151.097z M210.36,206.887H198.4
	V185.23h33.616c5.947,0,10.861-4.848,10.861-10.861s-4.848-10.861-10.861-10.861H198.4v-12.477c0-3.814,3.232-7.046,7.046-7.046
	h56.372c2.198,0,4.331,0,6.529,0.517v52.558c0,15.192,12.477,27.669,27.669,27.669h69.366c2.198,8.663,3.232,17.325,3.232,26.57
	c0,3.814-3.232,7.046-7.046,7.046H230.982c-16.808,0-30.901-12.994-32.517-29.285h11.378c5.947,0,10.861-4.848,10.861-10.861
	C220.638,212.317,216.307,206.887,210.36,206.887z M295.434,203.137c-3.232,0-5.947-2.715-5.947-5.947v-49.325
	c29.285,8.145,53.657,28.186,67.232,55.273L295.434,203.137L295.434,203.137z M98.715,144.568h79.127
	c-0.517,2.198-0.517,4.331-0.517,6.529v29.285l0,0L98.715,144.568z M300.283,312.584h-48.808v-33.034h48.808V312.584z"/>
</svg>