<?xml version="1.0" encoding="iso-8859-1"?>
<!-- Uploaded to: SVG Repo, www.svgrepo.com, Generator: SVG Repo Mixer Tools -->
<svg height="800px" width="800px" version="1.1" id="Layer_1" xmlns="http://www.w3.org/2000/svg" xmlns:xlink="http://www.w3.org/1999/xlink" 
	 viewBox="0 0 511.999 511.999" xml:space="preserve">
<path style="fill:#747D8C;" d="M206.242,500.242h-69.853c-50.118,0-93.426-35.009-103.932-84.013
	c-0.06-0.283-0.121-0.565-0.181-0.849h278.082c-0.06,0.283-0.121,0.565-0.182,0.849
	C299.668,465.234,256.359,500.242,206.242,500.242z"/>
<path style="fill:#FAC51C;" d="M440.751,94.232v42.431H271.027v19.359c0,19.921-16.145,36.066-36.066,36.066H89.635
	c-19.921,0-36.066-16.145-36.066-36.066v-1.167c0-2.896,0.159-5.749,0.467-8.56h64.156c14.108,0,25.543-11.435,25.543-25.543V75.403
	h90.579c9.324,0,18.341,3.299,25.469,9.324l0.212,0.18c7.128,6.025,16.145,9.324,25.469,9.324
	C285.465,94.232,440.751,94.232,440.751,94.232z"/>
<path style="fill:#EFEFEF;" d="M143.735,75.403v45.348c0,14.108-11.435,25.543-25.543,25.543H54.036
	c4.254-39.853,37.997-70.891,78.985-70.891C133.021,75.403,143.735,75.403,143.735,75.403z"/>
<circle style="fill:#747D8C;" cx="437.749" cy="75.4" r="63.646"/>
<path style="fill:#EFEFEF;" d="M437.746,96.618c-11.698,0-21.215-9.517-21.215-21.215s9.517-21.215,21.215-21.215
	s21.215,9.517,21.215,21.215S449.443,96.618,437.746,96.618z"/>
<g>
	<path style="fill:#231F20;" d="M437.746,1.149c-40.944,0-74.254,33.31-74.254,74.254c0,2.779,0.167,5.52,0.466,8.221h-78.493
		c-6.807,0-13.42-2.421-18.605-6.804l-0.228-0.194c-9.025-7.629-20.503-11.831-32.318-11.831h-52.392V48.353h145.856
		c5.859,0,10.608-4.75,10.608-10.608s-4.749-10.608-10.608-10.608H14.851c-5.859,0-10.608,4.75-10.608,10.608
		s4.749,10.608,10.608,10.608h145.856v16.442h-27.686c-45.053,0-82.789,32.934-89.109,77.128c-0.605,1.334-0.95,14.099-0.95,14.099
		c0,25.736,20.938,46.674,46.674,46.674h22.807v20.685H42.638c-11.812,0-21.422-9.611-21.422-21.422v-0.324
		c0-5.858-4.749-10.608-10.608-10.608S0,195.777,0,201.635v0.324c0,23.511,19.127,42.638,42.638,42.638h118.069v85.079
		L28.236,405.589c-1.623,0.669-3.08,1.724-4.211,3.123c-2.013,2.492-2.794,5.76-2.123,8.892l0.182,0.849
		c5.588,26.066,20.083,49.652,40.815,66.41c20.732,16.759,46.831,25.988,73.489,25.988h69.854c26.658,0,52.758-9.229,73.489-25.988
		c20.732-16.759,35.227-40.343,40.815-66.41l0.182-0.849c0.671-3.132-0.109-6.401-2.123-8.892c-1.131-1.399-2.589-2.454-4.211-3.123
		l-132.474-75.913v-85.079h94.939c5.859,0,10.608-4.75,10.608-10.608s-4.749-10.608-10.608-10.608h-60.464v-20.685h18.564
		c25.736,0,46.674-20.938,46.674-46.674v-8.751h137.417c5.975,1.555,12.238,2.387,18.693,2.387c40.944,0,74.254-33.31,74.254-74.254
		S478.69,1.149,437.746,1.149z M206.242,489.635h-69.854c-40.619,0-76.746-26.128-90.151-63.646h250.156
		C282.987,463.507,246.861,489.635,206.242,489.635z M72.33,404.773l98.985-56.725l98.985,56.725H72.33z M133.021,86.011h0.106
		v34.74c0,8.236-6.7,14.936-14.936,14.936H66.869C75.179,106.677,101.808,86.011,133.021,86.011z M195.182,223.381h-61.525v-20.685
		h61.525V223.381z M271.027,126.055c-5.859,0-10.608,4.75-10.608,10.608v19.359c0,14.037-11.42,25.459-25.459,25.459H89.635
		c-13.743,0-24.978-10.946-25.444-24.578h54c19.934,0,36.151-16.217,36.151-36.151v-34.74h79.972c6.807,0,13.42,2.421,18.605,6.804
		l0.228,0.194c9.025,7.629,20.503,11.831,32.317,11.831h84.126c3.413,7.871,8.152,15.032,13.931,21.215
		C383.521,126.055,271.027,126.055,271.027,126.055z M437.746,128.442c-29.246,0-53.039-23.793-53.039-53.039
		s23.793-53.039,53.039-53.039s53.039,23.793,53.039,53.039S466.991,128.442,437.746,128.442z"/>
	<path style="fill:#231F20;" d="M437.746,43.58c-17.547,0-31.823,14.276-31.823,31.823s14.276,31.823,31.823,31.823
		s31.823-14.276,31.823-31.823S455.292,43.58,437.746,43.58z M437.746,86.011c-5.849,0-10.608-4.759-10.608-10.608
		s4.759-10.608,10.608-10.608s10.608,4.759,10.608,10.608S443.595,86.011,437.746,86.011z"/>
	<path style="fill:#231F20;" d="M228.862,125.259h-2.122c-5.859,0-10.608,4.75-10.608,10.608c0,5.858,4.749,10.608,10.608,10.608
		h2.122c5.859,0,10.608-4.75,10.608-10.608S234.72,125.259,228.862,125.259z"/>
</g>
</svg>