<?xml version="1.0" encoding="UTF-8" standalone="no"?>
<!DOCTYPE svg PUBLIC "-//W3C//DTD SVG 20010904//EN"
 "http://www.w3.org/TR/2001/REC-SVG-20010904/DTD/svg10.dtd">
<svg version="1.0" xmlns="http://www.w3.org/2000/svg"
 width="225.000000pt" height="225.000000pt" viewBox="0 0 225.000000 225.000000"
 preserveAspectRatio="xMidYMid meet">

	<g transform="translate(0.000000,225.000000) scale(0.100000,-0.100000)"
	fill="#FFFFFF" stroke="none">
		<path d="M982 2239 c-162 -21 -339 -86 -474 -175 -94 -61 -261 -228 -322 -322
-243 -370 -243 -864 0 -1234 61 -94 228 -261 322 -322 370 -243 864 -243 1234
0 94 61 261 228 322 322 243 370 243 864 0 1234 -61 94 -228 261 -322 322
-220 145 -500 209 -760 175z m378 -1305 c316 -317 568 -573 560 -569 -32 18
-1826 1128 -1834 1136 -6 5 140 9 345 9 l354 0 575 -576z m196 543 c41 -48 12
-101 -96 -172 -110 -73 -123 -95 -55 -95 29 0 49 14 140 99 122 115 173 141
281 141 56 0 68 -3 88 -25 13 -14 28 -25 33 -25 6 0 22 -9 37 -21 20 -16 26
-29 26 -59 0 -38 -1 -39 -26 -30 -37 15 -49 13 -81 -14 -16 -13 -40 -26 -53
-28 -24 -3 -25 -7 -32 -91 -12 -166 -53 -273 -128 -341 -38 -34 -95 -66 -118
-66 -4 0 -176 171 -381 380 l-373 381 357 -3 357 -3 24 -28z"/>
	</g>
</svg>